<?xml version="1.0" encoding="iso-8859-1"?>
<!-- Generator: Adobe Illustrator 19.0.0, SVG Export Plug-In . SVG Version: 6.00 Build 0)  -->
<svg xmlns="http://www.w3.org/2000/svg" xmlns:xlink="http://www.w3.org/1999/xlink" version="1.1" id="Layer_1" x="0px" y="0px" viewBox="0 0 512 512" style="enable-background:new 0 0 512 512;" xml:space="preserve" width="512px" height="512px">
<g>
	<g>
		<g>
			<path d="M97.018,341.333H10.78C4.821,341.333,0,346.104,0,352c0,5.896,4.821,10.667,10.78,10.667h86.238     c5.958,0,10.78-4.771,10.78-10.667C107.798,346.104,102.977,341.333,97.018,341.333z" fill="#FFFFFF"/>
			<path d="M107.798,277.333H10.78C4.821,277.333,0,282.104,0,288s4.821,10.667,10.78,10.667h97.018     c5.958,0,10.78-4.771,10.78-10.667S113.756,277.333,107.798,277.333z" fill="#FFFFFF"/>
			<path d="M118.578,213.333H10.78C4.821,213.333,0,218.104,0,224s4.821,10.667,10.78,10.667h107.798     c5.958,0,10.78-4.771,10.78-10.667S124.536,213.333,118.578,213.333z" fill="#FFFFFF"/>
			<path d="M201.448,172.208c42.888,41.656,91.512,88.885,106.04,102.417c2.011,1.865,4.727,2.833,7.464,2.833     c1.284,0,2.569-0.208,3.79-0.646c0.937-0.333,3.442-1.219,6.39-3.219c18.938-12.844,80.754-53.323,138.548-91.167l40.319-26.406     c2.695-1.771,4.453-4.656,4.769-7.844c0.316-3.188-0.821-6.344-3.116-8.615C498.081,132.104,488.039,128,477.364,128H209.501     c-9.611,0-19.096,3.292-26.728,9.26c-2.421,1.906-3.906,4.74-4.074,7.802c-0.158,3.063,1.011,6.042,3.221,8.177L201.448,172.208z     " fill="#FFFFFF"/>
			<path d="M507.282,187.406c-3.621-2.427-8.359-2.469-12.001-0.083l-24.097,15.781c-56.383,36.917-115.441,75.594-133.874,88.083     c-14.885,10.135-33.171,9.625-44.604-1.042c-14.685-13.667-63.394-60.979-106.935-103.271l-5.664-5.5     c-2.811-2.74-6.885-3.74-10.674-2.604c-3.769,1.125-6.622,4.198-7.432,8.01l-31.781,149.385     c-0.568,2.688-0.863,5.438-0.863,8.188c0,21.865,17.97,39.646,40.066,39.646h267.863c20.265,0,38.013-14.24,42.203-33.875     l32.276-151.698C512.672,194.198,510.893,189.844,507.282,187.406z" fill="#FFFFFF"/>
			<path d="M10.78,170.667h118.578c5.958,0,10.78-4.771,10.78-10.667s-4.821-10.667-10.78-10.667H10.78     C4.821,149.333,0,154.104,0,160S4.821,170.667,10.78,170.667z" fill="#FFFFFF"/>
		</g>
	</g>
</g>
<g>
</g>
<g>
</g>
<g>
</g>
<g>
</g>
<g>
</g>
<g>
</g>
<g>
</g>
<g>
</g>
<g>
</g>
<g>
</g>
<g>
</g>
<g>
</g>
<g>
</g>
<g>
</g>
<g>
</g>
</svg>
